# xmcd CD database file
#
# Track frame offsets:
#	150
#	75706
#	158516
#
# Disc length: 3365 seconds
#
# Revision: 0
# Processed by: cddbd v1.5.2PL0 Copyright (c) Steve Scherf et al.
# Submitted via: CDex 1.51
#
DISCID=130d2303
DTITLE=Tadeusz S³awek and Bogdan Mizerski - De-konstrukcje
DYEAR=1998
DGENRE=Jazz
TTITLE0=£owca o³owiu
TTITLE1=Na brzegu
TTITLE2=Ornit(e)ologia
EXTD=YEAR: 1998
EXTT0=
EXTT1=
EXTT2=
PLAYORDER=
